#N canvas 0 22 450 300 10;
#N canvas 199 369 450 300 controls 1;
#X obj 28 -119 hsl 128 15 0 127 0 0 empty empty empty -2 -8 0 10 -262144
-1 -1 10700 1;
#X obj 25 -101 / 127;
#X obj 25 -81 s 1-vol;
#X msg 210 -119 1;
#X msg 242 -119 2;
#X msg 273 -119 3;
#X msg 307 -119 4;
#X obj 186 -92 s 1-wave;
#X msg 177 -119 0;
#X msg 342 -119 1;
#X msg 384 -119 0;
#X obj 342 -92 s 1-on;
#X obj 384 -92 s 1-off;
#X obj 29 -48 hsl 128 15 0 127 0 0 empty empty empty -2 -8 0 10 -262144
-1 -1 6300 1;
#X obj 26 -10 s 1-basenote;
#X obj 29 17 hsl 128 15 0 127 0 0 empty empty empty -2 -8 0 10 -262144
-1 -1 5500 1;
#X obj 26 57 s 1-width;
#X obj 29 78 hsl 128 15 0 127 0 0 empty empty empty -2 -8 0 10 -262144
-1 -1 800 1;
#X obj 26 96 / 40;
#X obj 26 116 s 1-speed;
#X obj 26 -30 + 0;
#X obj 26 35 / 10;
#X obj 174 77 hsl 128 15 0 127 0 0 empty empty empty -2 -8 0 10 -262144
-1 -1 8400 1;
#X obj 171 115 s 1-wrap;
#X obj 171 95 / 1;
#X obj 59 35 - 6;
#X connect 0 0 1 0;
#X connect 1 0 2 0;
#X connect 3 0 7 0;
#X connect 4 0 7 0;
#X connect 5 0 7 0;
#X connect 6 0 7 0;
#X connect 8 0 7 0;
#X connect 9 0 11 0;
#X connect 10 0 12 0;
#X connect 13 0 20 0;
#X connect 15 0 21 0;
#X connect 17 0 18 0;
#X connect 18 0 19 0;
#X connect 20 0 14 0;
#X connect 21 0 25 0;
#X connect 22 0 24 0;
#X connect 24 0 23 0;
#X connect 25 0 16 0;
#X restore 238 -56 pd controls;
#X obj 122 103 noisebox1 1;
