#N canvas 665 151 523 401 10;
#X obj 433 55 inlet mode;
#X obj 147 113 phasor~;
#X obj 148 236 *~;
#X obj 133 283 +~;
#X obj 133 320 outlet~;
#X obj 14 56 inlet sourcepitch;
#X obj 14 81 sig~;
#X obj 128 56 inlet width;
#X obj 128 82 sig~;
#X obj 207 78 sig~;
#X obj 207 56 inlet speed;
#X obj 290 56 inlet wrap;
#X obj 148 195 int~;
#X obj 147 134 *~ 24;
#X obj 289 102 + 0;
#X connect 1 0 13 0;
#X connect 2 0 3 1;
#X connect 3 0 4 0;
#X connect 5 0 6 0;
#X connect 6 0 3 0;
#X connect 7 0 8 0;
#X connect 8 0 2 1;
#X connect 9 0 1 0;
#X connect 10 0 9 0;
#X connect 11 0 14 0;
#X connect 12 0 2 0;
#X connect 13 0 12 0;
#X connect 14 0 13 1;
