#N canvas 665 151 559 725 10;
#X obj 433 55 inlet mode;
#X obj 148 113 phasor~;
#X obj 148 216 tabread~ scale;
#N canvas 0 22 450 300 (subpatch) 0;
#X array scale 24 float 3;
#A 0 0 1 2 3 4 5 6 7 8 9 10 11 12 13 14 15 16 17 18 19 20 21 22 23
;
#X coords 0 0 24 1 200 140 0;
#X restore 281 147 graph;
#X obj 148 236 *~;
#X obj 133 283 +~;
#X obj 133 320 outlet~;
#X obj 14 56 inlet sourcepitch;
#X obj 14 81 sig~;
#X obj 128 56 inlet width;
#X obj 128 82 sig~;
#X obj 207 78 sig~;
#X obj 207 56 inlet speed;
#X msg 403 221 \; scale read normal.txt;
#X msg 400 260 \; scale read linear.txt;
#X obj 290 56 inlet wrap;
#X obj 148 195 int~;
#X obj 148 156 mod~ 24;
#X obj 148 134 *~ 24;
#X obj 289 102 min 24;
#X obj 386 178 loadbang;
#X connect 1 0 18 0;
#X connect 2 0 4 0;
#X connect 4 0 5 1;
#X connect 5 0 6 0;
#X connect 7 0 8 0;
#X connect 8 0 5 0;
#X connect 9 0 10 0;
#X connect 10 0 4 1;
#X connect 11 0 1 0;
#X connect 12 0 11 0;
#X connect 15 0 19 0;
#X connect 16 0 2 0;
#X connect 17 0 16 0;
#X connect 18 0 17 0;
#X connect 19 0 17 1;
#X connect 20 0 13 0;
