#N canvas 947 232 563 477 10;
#X obj 196 363 *~;
#X obj 367 306 ADSR 1;
#N canvas 0 22 450 300 out 0;
#X obj 21 -71 inlet~;
#X obj 21 -37 dac~;
#X connect 0 0 1 0;
#X connect 0 0 1 1;
#X restore 196 430 pd out;
#X obj 231 194 r \$1-vol;
#X obj 266 213 r \$1-wave;
#X obj 301 232 r \$1-width;
#X obj 367 209 r \$1-on;
#X obj 400 229 r \$1-off;
#X obj 196 306 waveformselector 0;
#X obj 80 251 arpeggio spacerspacer;
#X obj 80 133 r \$1-basenote;
#X obj 110 158 r \$1-width;
#X obj 141 179 r \$1-speed;
#X obj 196 283 mtof~;
#X obj 172 205 r \$1-wrap;
#X connect 0 0 2 0;
#X connect 1 0 0 1;
#X connect 3 0 8 1;
#X connect 4 0 8 2;
#X connect 5 0 8 3;
#X connect 6 0 1 0;
#X connect 7 0 1 1;
#X connect 8 0 0 0;
#X connect 9 0 13 0;
#X connect 10 0 9 0;
#X connect 11 0 9 1;
#X connect 12 0 9 2;
#X connect 13 0 8 0;
#X connect 14 0 9 3;
